<?xml version="1.0" encoding="UTF-8" standalone="no"?>
<svg
   xmlns:dc="http://purl.org/dc/elements/1.1/"
   xmlns:cc="http://creativecommons.org/ns#"
   xmlns:rdf="http://www.w3.org/1999/02/22-rdf-syntax-ns#"
   xmlns:svg="http://www.w3.org/2000/svg"
   xmlns="http://www.w3.org/2000/svg"
   xmlns:sodipodi="http://sodipodi.sourceforge.net/DTD/sodipodi-0.dtd"
   xmlns:inkscape="http://www.inkscape.org/namespaces/inkscape"
   inkscape:export-ydpi="300"
   inkscape:export-xdpi="300"
   inkscape:export-filename="/Users/harald/projects/autrax/assets/autrax-logo.png"
   sodipodi:docname="autrax-logo-p.svg"
   inkscape:version="1.0 (4035a4f, 2020-05-01)"
   id="svg8"
   version="1.1"
   viewBox="0 0 51.132992 25.512793"
   height="25.512793mm"
   width="51.132992mm">
  <defs
     id="defs2" />
  <sodipodi:namedview
     fit-margin-bottom="1"
     fit-margin-right="1"
     fit-margin-left="1"
     fit-margin-top="1"
     inkscape:window-maximized="0"
     inkscape:window-y="103"
     inkscape:window-x="1908"
     inkscape:window-height="977"
     inkscape:window-width="1680"
     inkscape:guide-bbox="true"
     showguides="true"
     showgrid="false"
     inkscape:document-rotation="0"
     inkscape:current-layer="g132"
     inkscape:document-units="mm"
     inkscape:cy="37.012536"
     inkscape:cx="100.22704"
     inkscape:zoom="4.9983065"
     inkscape:pageshadow="2"
     inkscape:pageopacity="0.0"
     borderopacity="1.0"
     bordercolor="#666666"
     pagecolor="#ffffff"
     id="base">
    <sodipodi:guide
       position="19.915062,3.7818652"
       orientation="0,-1"
       id="guide88" />
    <sodipodi:guide
       position="35.543702,1.0358351"
       orientation="0,-1"
       id="guide90" />
    <sodipodi:guide
       position="16.063516,20.502277"
       orientation="0,-1"
       id="guide92" />
    <sodipodi:guide
       id="guide120"
       orientation="1,0"
       position="10.396916,22.561901" />
    <sodipodi:guide
       id="guide122"
       orientation="0,-1"
       position="13.218572,9.1644222" />
  </sodipodi:namedview>
  <metadata
     id="metadata5">
    <rdf:RDF>
      <cc:Work
         rdf:about="">
        <dc:format>image/svg+xml</dc:format>
        <dc:type
           rdf:resource="http://purl.org/dc/dcmitype/StillImage" />
        <dc:title></dc:title>
      </cc:Work>
    </rdf:RDF>
  </metadata>
  <g
     transform="translate(-45.389798,-60.810167)"
     id="layer1"
     inkscape:groupmode="layer"
     inkscape:label="all text"
     style="display:none;mix-blend-mode:normal">
    <text
       id="text12"
       y="77.10714"
       x="54.428574"
       style="font-size:16.9333px;line-height:1.25;font-family:verdana;-inkscape-font-specification:verdana;letter-spacing:-1.5875px;stroke-width:0.264583"
       xml:space="preserve"><tspan
         style="font-style:italic;font-variant:normal;font-weight:normal;font-stretch:normal;font-size:16.9333px;font-family:'.SF Compact Display';-inkscape-font-specification:'.SF Compact Display Italic';stroke-width:0.264583"
         y="77.10714"
         x="54.428574"
         id="tspan10"
         sodipodi:role="line">UNI</tspan></text>
    <text
       id="text24"
       y="85.290001"
       x="72.758858"
       style="font-style:normal;font-variant:normal;font-weight:normal;font-stretch:normal;font-size:35.2778px;line-height:1.25;font-family:'.SF Compact Display';-inkscape-font-specification:'.SF Compact Display';stroke-width:0.264583"
       xml:space="preserve"><tspan
         style="font-style:italic;font-variant:normal;font-weight:normal;font-stretch:normal;font-size:35.2778px;font-family:'.SF Compact Display';-inkscape-font-specification:'.SF Compact Display Italic';stroke-width:0.264583"
         y="85.290001"
         x="72.758858"
         id="tspan22"
         sodipodi:role="line">X</tspan></text>
    <text
       transform="skewX(-19.882944)"
       id="text28"
       y="82.530586"
       x="85.932434"
       style="font-size:6.35px;line-height:1.25;font-family:verdana;-inkscape-font-specification:verdana;stroke-width:0.264583"
       xml:space="preserve"><tspan
         style="font-style:normal;font-variant:normal;font-weight:normal;font-stretch:normal;font-size:6.35px;font-family:'.SF Compact Display';-inkscape-font-specification:'.SF Compact Display';stroke-width:0.264583"
         y="82.530586"
         x="85.932434"
         id="tspan26"
         sodipodi:role="line">A</tspan></text>
    <text
       xml:space="preserve"
       style="font-size:6.35px;line-height:1.25;font-family:verdana;-inkscape-font-specification:verdana;letter-spacing:-0.396875px;stroke-width:0.264583"
       x="59.874924"
       y="82.500557"
       id="text28-5"><tspan
         sodipodi:role="line"
         id="tspan26-5"
         x="59.874924"
         y="82.500557"
         style="font-style:normal;font-variant:normal;font-weight:normal;font-stretch:normal;font-size:6.35px;font-family:'.SF Compact Display';-inkscape-font-specification:'.SF Compact Display';stroke-width:0.264583">ddict</tspan></text>
  </g>
  <g
     style="display:inline"
     inkscape:label="utra"
     inkscape:groupmode="layer"
     id="g132"
     transform="translate(-45.389798,-60.810167)">
    <g
       style="font-size:16.9333px;line-height:1.25;font-family:verdana;-inkscape-font-specification:verdana;letter-spacing:-1.5875px;stroke-width:0.264583"
       id="text118"
       aria-label="utra">
      <path
         id="path145"
         style="font-style:italic;font-variant:normal;font-weight:normal;font-stretch:normal;font-size:16.9333px;font-family:'.SF Compact Display';-inkscape-font-specification:'.SF Compact Display Italic';stroke-width:0.264583"
         d="m 64.460645,68.34555 h -1.306378 l -1.083136,5.407412 q -0.140559,0.702798 -0.520897,1.19889 -0.37207,0.496093 -0.917772,0.760676 -0.545702,0.256315 -1.198891,0.256315 -0.595311,0 -1.041795,-0.198438 -0.438215,-0.206705 -0.636652,-0.686261 -0.190169,-0.479557 -0.02481,-1.306378 l 1.091405,-5.432216 h -1.306378 l -1.165818,5.812554 q -0.198437,0.992186 0.06615,1.661911 0.264582,0.661457 0.892967,1.000454 0.636652,0.338996 1.537887,0.338996 0.686262,0 1.223696,-0.165364 0.537434,-0.173632 0.917771,-0.46302 0.388606,-0.289387 0.611848,-0.628384 h 0.04961 l -0.223241,1.116209 h 1.298109 z" />
      <path
         id="path147"
         style="font-style:italic;font-variant:normal;font-weight:normal;font-stretch:normal;font-size:16.9333px;font-family:'.SF Compact Display';-inkscape-font-specification:'.SF Compact Display Italic';stroke-width:0.264583"
         d="m 65.981993,68.34555 h -1.15755 l -0.223242,1.107941 h 1.15755 l -1.025259,5.142828 q -0.173632,0.843358 -0.107486,1.405596 0.06614,0.553971 0.529165,0.826822 0.46302,0.272851 1.48001,0.272851 0.206706,0 0.405143,-0.02481 0.198437,-0.01654 0.281119,-0.03307 l 0.214974,-1.066599 q -0.08268,0.0083 -0.165365,0.01654 -0.08268,0 -0.1819,0 -0.826822,0 -1.083136,-0.264583 -0.248047,-0.264582 -0.09095,-1.066599 l 1.041795,-5.208974 h 1.719789 l 0.22324,-1.107943 h -1.719788 l 0.438215,-2.182808 h -1.298109 z" />
      <path
         id="path149"
         style="font-style:italic;font-variant:normal;font-weight:normal;font-stretch:normal;font-size:16.9333px;font-family:'.SF Compact Display';-inkscape-font-specification:'.SF Compact Display Italic';stroke-width:0.264583"
         d="m 67.92502,77.018906 h 1.298109 l 1.091404,-5.440484 q 0.115755,-0.587044 0.396874,-1.074868 0.289388,-0.496093 0.785481,-0.78548 0.504361,-0.297656 1.281573,-0.297656 0.190169,0 0.363801,0.0083 0.181901,0.0083 0.289387,0.02481 l 0.239779,-1.207159 q -0.124024,-0.01654 -0.256315,-0.02481 -0.124023,-0.0083 -0.239778,-0.0083 -0.620116,0 -1.091404,0.190169 -0.471288,0.1819 -0.793749,0.454752 -0.32246,0.272851 -0.504361,0.529165 h -0.03307 l 0.206706,-1.041795 h -1.29811 z" />
      <path
         id="path151"
         style="font-style:italic;font-variant:normal;font-weight:normal;font-stretch:normal;font-size:16.9333px;font-family:'.SF Compact Display';-inkscape-font-specification:'.SF Compact Display Italic';stroke-width:0.264583"
         d="m 77.028319,75.93577 h 0.03307 l -0.214973,1.083136 h 1.256768 l 1.198891,-6.002723 q 0.181901,-0.901235 -0.09922,-1.521351 -0.28112,-0.628384 -0.92604,-0.959113 -0.644921,-0.330728 -1.554424,-0.330728 -0.760676,0 -1.380792,0.190169 -0.611848,0.190168 -1.083136,0.537433 -0.46302,0.347265 -0.777212,0.826822 -0.305924,0.471288 -0.454751,1.041795 h 1.223695 q 0.206705,-0.669726 0.768944,-1.074868 0.562238,-0.405143 1.430401,-0.405143 0.909503,0 1.306377,0.479557 0.396875,0.471288 0.223242,1.355987 l -0.181901,0.892967 h -2.315099 q -1.488279,0.0083 -2.397782,0.677993 -0.901235,0.669725 -1.132745,1.802471 -0.239778,1.190622 0.405142,1.909957 0.644921,0.719334 1.901689,0.719334 0.644921,0 1.15755,-0.157096 0.512629,-0.157096 0.917772,-0.429947 0.405142,-0.281119 0.69453,-0.636652 z m -2.22415,0.107487 q -0.702798,0 -1.182354,-0.37207 -0.479556,-0.380338 -0.32246,-1.174086 0.124023,-0.611848 0.611847,-1.000454 0.487825,-0.388606 1.413865,-0.388606 h 2.26549 l -0.206705,1.025258 q -0.115755,0.562239 -0.487825,0.992186 -0.372069,0.429947 -0.917771,0.677993 -0.537434,0.239779 -1.174087,0.239779 z" />
    </g>
  </g>
  <g
     transform="translate(-45.389798,-60.810167)"
     id="g118"
     inkscape:groupmode="layer"
     inkscape:label="A"
     style="display:inline">
    <g
       style="font-size:16.9333px;line-height:1.25;font-family:verdana;-inkscape-font-specification:verdana;letter-spacing:-1.5875px;stroke-width:0.264583"
       id="text116"
       transform="skewX(-9.0424708)"
       aria-label="A">
      <path
         id="path142"
         style="font-style:italic;font-variant:normal;font-weight:normal;font-stretch:normal;font-size:16.9333px;font-family:'.SF Compact Display';-inkscape-font-specification:'.SF Compact Display Italic';stroke-width:0.264583"
         d="m 60.04927,77.154343 1.876884,-3.47265 h 4.266398 l 0.487824,3.47265 h 1.380792 L 66.266966,65.868232 h -1.289842 l -6.308646,11.286111 z m 5.266851,-9.657273 0.719335,5.101487 h -3.522259 l 2.769851,-5.101487 z" />
    </g>
  </g>
  <g
     style="display:inline"
     inkscape:label="X"
     inkscape:groupmode="layer"
     id="g111"
     transform="translate(-45.389798,-60.810167)">
    <g
       aria-label="X"
       id="text101"
       style="font-style:normal;font-variant:normal;font-weight:normal;font-stretch:normal;font-size:35.2778px;line-height:1.25;font-family:'.SF Compact Display';-inkscape-font-specification:'.SF Compact Display';stroke-width:0.264583"
       transform="translate(-1.2035485)">
      <path
         d="m 96.72634,61.810167 h -3.16949 l -7.923725,9.456794 h -0.155029 l -2.422899,-5.446279 h -3.274329 l 3.492365,7.651141 -10.128587,11.851137 h 3.135039 l 7.958176,-9.456794 h 0.155029 l 2.930145,6.674928 h 3.30878 L 86.4944,73.695755 Z"
         style="font-style:italic;font-variant:normal;font-weight:normal;font-stretch:normal;font-size:35.2778px;font-family:'.SF Compact Display';-inkscape-font-specification:'.SF Compact Display Italic';stroke-width:0.264583"
         id="path113"
         sodipodi:nodetypes="ccccccccccccccc" />
    </g>
  </g>
</svg>
