<svg xmlns="http://www.w3.org/2000/svg" viewBox="0 0 51.133 25.513" height="96.426" width="193.259"><g style="line-height:1.25;-inkscape-font-specification:verdana" aria-label="utra" font-size="16.933" font-family=".SF Compact Display" letter-spacing="-1.587" stroke-width=".265" font-style="italic" font-weight="400"><path style="-inkscape-font-specification:'.SF Compact Display Italic'" d="M19.07 7.535h-1.306l-1.083 5.408q-.14.703-.52 1.199-.373.496-.918.76-.546.257-1.2.257-.595 0-1.041-.199-.438-.206-.637-.686-.19-.48-.024-1.306l1.09-5.433h-1.305l-1.166 5.813q-.199.992.066 1.662.264.661.893 1 .636.34 1.538.34.686 0 1.223-.166.538-.174.918-.463.389-.29.612-.628h.05l-.224 1.116h1.299zM20.592 7.535h-1.157l-.224 1.108h1.158l-1.025 5.143q-.174.844-.108 1.406.066.554.53.827.462.272 1.48.272.206 0 .405-.024.198-.017.28-.033l.216-1.067-.166.016H21.8q-.826 0-1.083-.264-.248-.265-.09-1.067l1.041-5.209h1.72l.223-1.108h-1.72l.439-2.182H21.03zM22.535 16.209h1.298l1.092-5.44q.115-.588.397-1.076.289-.496.785-.785.504-.298 1.282-.298.19 0 .363.009.182.008.29.024l.24-1.207q-.124-.016-.257-.025-.124-.008-.24-.008-.62 0-1.09.19-.472.182-.795.455-.322.273-.504.53h-.033l.207-1.043h-1.298zM31.639 15.126h.033l-.215 1.083h1.256l1.2-6.003q.181-.901-.1-1.521-.281-.629-.926-.96-.645-.33-1.554-.33-.761 0-1.381.19-.612.19-1.083.537-.463.348-.778.827-.305.472-.454 1.042h1.223q.207-.67.77-1.075.562-.405 1.43-.405.91 0 1.306.48.397.47.223 1.356l-.182.893h-2.315q-1.488.008-2.397.678-.902.67-1.133 1.802-.24 1.19.405 1.91t1.902.72q.645 0 1.157-.158.513-.157.918-.43.405-.28.695-.636zm-2.225.107q-.702 0-1.182-.372-.48-.38-.322-1.174.124-.612.611-1 .488-.39 1.414-.39h2.266l-.207 1.026q-.116.562-.488.992-.372.43-.918.678-.537.24-1.174.24z"/></g><g style="line-height:1.25;-inkscape-font-specification:verdana"><path style="-inkscape-font-specification:'.SF Compact Display Italic'" d="M2.38 16.344l2.43-3.472h4.267l-.065 3.472h1.38l.003-11.286h-1.29L1 16.344zm6.805-9.657l-.093 5.101H5.57L9.15 6.687z" font-style="italic" font-weight="400" font-family=".SF Compact Display" aria-label="A" font-size="16.933" letter-spacing="-1.587" stroke-width=".265"/></g><g style="line-height:1.25;-inkscape-font-specification:'.SF Compact Display'"><path d="M50.133 1h-3.17l-7.923 9.457h-.155L36.462 5.01h-3.274l3.492 7.65L26.55 24.514h3.135l7.959-9.457h.155l2.93 6.675h3.308l-4.137-8.845z" style="-inkscape-font-specification:'.SF Compact Display Italic'" font-style="italic" aria-label="X" font-weight="400" font-size="35.278" font-family=".SF Compact Display" stroke-width=".265"/></g></svg>